<svg id="svg" version="1.1" xmlns="http://www.w3.org/2000/svg" xmlns:xlink="http://www.w3.org/1999/xlink" width="400" height="400" viewBox="0, 0, 400,400"><g id="svgg"><path id="path0" d="M0.000 200.000 L 0.000 400.000 200.000 400.000 L 400.000 400.000 400.000 200.000 L 400.000 0.000 200.000 0.000 L 0.000 0.000 0.000 200.000 M221.696 95.362 C 224.693 96.513,235.892 100.716,241.200 102.681 C 247.064 104.853,254.512 107.642,255.400 107.998 C 255.840 108.175,256.830 108.537,257.600 108.804 C 258.370 109.070,260.080 109.704,261.400 110.212 C 262.720 110.720,265.600 111.798,267.800 112.607 C 270.000 113.416,273.510 114.706,275.600 115.474 C 279.579 116.937,280.359 117.232,282.000 117.899 C 282.550 118.123,284.260 118.760,285.800 119.316 C 290.314 120.945,296.535 123.244,297.400 123.604 C 297.840 123.786,299.550 124.415,301.200 125.000 C 302.850 125.585,304.560 126.215,305.000 126.400 C 306.138 126.879,315.530 130.375,327.200 134.664 C 329.290 135.432,331.360 136.212,331.800 136.398 C 332.240 136.584,333.950 137.225,335.600 137.822 C 337.250 138.419,338.771 139.063,338.980 139.254 C 339.189 139.444,339.686 139.600,340.085 139.600 C 340.484 139.600,341.123 139.769,341.505 139.975 C 341.887 140.181,343.550 140.827,345.200 141.411 C 346.850 141.994,348.830 142.701,349.600 142.982 C 352.009 143.863,353.493 146.871,352.287 148.430 C 351.718 149.166,342.964 154.800,342.389 154.800 C 342.175 154.800,341.998 154.935,341.995 155.100 C 341.992 155.265,340.985 156.030,339.756 156.800 C 338.248 157.745,337.743 158.244,338.200 158.337 C 338.763 158.451,338.829 158.753,338.590 160.137 C 337.640 165.649,338.521 179.299,340.016 182.231 C 340.447 183.077,340.800 184.147,340.800 184.608 C 340.800 185.980,341.619 186.613,345.200 188.006 C 347.070 188.733,348.780 189.455,349.000 189.609 C 349.220 189.763,349.890 190.007,350.488 190.149 C 352.666 190.669,354.462 193.589,353.598 195.204 C 353.366 195.637,351.067 197.398,348.488 199.118 C 345.910 200.838,338.220 206.002,331.400 210.593 C 310.980 224.340,307.874 226.400,307.563 226.400 C 307.400 226.400,307.207 226.543,307.133 226.717 C 307.020 226.987,295.056 235.090,280.436 244.800 C 278.282 246.230,273.067 249.740,268.846 252.600 C 264.624 255.460,260.875 257.980,260.515 258.200 C 260.154 258.420,258.097 259.815,255.943 261.300 C 253.790 262.785,251.857 264.000,251.647 264.000 C 251.438 264.000,251.207 264.144,251.133 264.321 C 251.060 264.497,249.470 265.647,247.600 266.876 C 245.730 268.106,242.618 270.211,240.685 271.556 C 238.753 272.900,237.080 274.000,236.969 274.000 C 236.857 274.000,236.549 274.192,236.283 274.426 C 236.017 274.660,234.090 275.977,232.000 277.353 C 229.910 278.728,224.960 282.048,221.000 284.730 C 190.759 305.210,188.189 306.790,186.980 305.638 C 186.771 305.438,185.970 304.928,185.200 304.504 C 184.430 304.079,182.900 303.233,181.800 302.624 C 180.700 302.014,178.630 300.870,177.200 300.081 C 175.770 299.293,174.510 298.546,174.400 298.424 C 174.290 298.301,173.480 297.817,172.600 297.349 C 168.437 295.135,166.111 293.824,165.138 293.143 C 164.554 292.735,163.988 292.400,163.880 292.400 C 163.717 292.400,156.512 288.379,150.800 285.101 C 150.030 284.659,148.050 283.572,146.400 282.685 C 144.750 281.798,142.922 280.741,142.338 280.336 C 141.754 279.931,141.189 279.600,141.081 279.600 C 140.973 279.600,138.661 278.316,135.943 276.747 C 133.224 275.178,129.920 273.315,128.600 272.607 C 124.527 270.421,122.245 269.117,121.138 268.343 C 120.554 267.934,119.987 267.600,119.877 267.600 C 119.767 267.600,118.535 266.945,117.138 266.145 C 115.742 265.345,113.430 264.057,112.000 263.283 C 110.570 262.509,108.922 261.543,108.338 261.138 C 107.754 260.732,107.176 260.400,107.053 260.400 C 106.930 260.400,104.644 259.140,101.972 257.600 C 99.300 256.060,97.053 254.800,96.979 254.800 C 96.904 254.800,95.798 254.189,94.521 253.442 C 89.500 250.504,87.772 249.547,87.100 249.331 C 86.715 249.208,86.400 248.948,86.400 248.753 C 86.400 248.559,86.237 248.400,86.038 248.400 C 85.840 248.400,84.535 247.747,83.138 246.948 C 81.742 246.150,79.610 244.952,78.400 244.285 C 76.444 243.208,72.907 241.216,69.400 239.216 C 68.740 238.840,67.376 238.073,66.368 237.512 C 65.361 236.951,64.101 236.247,63.568 235.946 C 59.409 233.600,56.238 229.242,52.259 220.400 C 48.375 211.769,45.432 196.435,46.351 189.609 C 47.147 183.695,46.805 183.984,62.800 175.696 C 67.885 173.061,74.937 169.341,77.400 167.994 C 78.500 167.392,81.560 165.774,84.200 164.398 C 86.840 163.022,89.540 161.580,90.200 161.195 C 90.860 160.809,92.930 159.688,94.800 158.704 C 104.876 153.401,107.715 151.897,115.400 147.790 C 120.020 145.322,125.780 142.267,128.200 141.001 C 137.975 135.888,141.091 134.247,143.000 133.207 C 145.711 131.729,150.186 129.341,155.000 126.801 C 157.200 125.641,160.080 124.111,161.400 123.401 C 162.720 122.691,165.960 120.982,168.600 119.602 C 173.800 116.883,177.461 114.933,180.600 113.209 C 181.700 112.605,185.300 110.709,188.600 108.997 C 191.900 107.284,195.500 105.394,196.600 104.797 C 197.700 104.200,200.220 102.850,202.200 101.798 C 204.180 100.746,207.060 99.208,208.600 98.380 C 217.094 93.816,217.455 93.733,221.696 95.362 " stroke="none" fill="#fbf39c" fill-rule="evenodd"></path><path id="path1" d="M213.800 96.550 C 212.480 97.271,209.060 99.089,206.200 100.589 C 203.340 102.088,200.100 103.808,199.000 104.409 C 197.900 105.011,194.390 106.861,191.200 108.521 C 185.923 111.266,180.227 114.300,173.800 117.789 C 172.480 118.506,168.880 120.403,165.800 122.005 C 158.846 125.624,159.739 125.151,155.000 127.722 C 152.800 128.916,149.110 130.889,146.800 132.106 C 144.490 133.323,141.700 134.807,140.600 135.405 C 139.500 136.003,136.530 137.575,134.000 138.898 C 126.644 142.745,121.977 145.208,119.400 146.603 C 117.211 147.789,112.583 150.250,105.524 153.984 C 104.052 154.763,101.021 156.354,98.787 157.520 C 93.677 160.188,89.179 162.578,86.600 163.995 C 85.500 164.600,82.800 166.042,80.600 167.200 C 78.400 168.358,75.700 169.798,74.600 170.399 C 73.500 171.000,69.810 172.933,66.400 174.695 C 62.990 176.457,59.480 178.306,58.600 178.804 C 57.720 179.302,55.830 180.339,54.400 181.110 C 50.704 183.103,50.014 183.600,50.945 183.600 C 51.343 183.600,52.868 184.212,54.334 184.960 C 55.800 185.707,60.870 188.291,65.600 190.701 C 76.912 196.466,77.765 196.913,78.000 197.204 C 78.110 197.341,81.080 198.864,84.600 200.590 C 88.120 202.315,91.450 204.038,92.000 204.417 C 92.550 204.796,97.680 207.486,103.400 210.394 C 109.120 213.302,115.600 216.631,117.800 217.791 C 120.000 218.952,124.227 221.183,127.193 222.751 C 130.160 224.318,132.742 225.600,132.932 225.600 C 133.121 225.600,133.754 225.938,134.338 226.352 C 134.922 226.766,136.921 227.854,138.781 228.770 C 140.640 229.686,142.350 230.578,142.581 230.751 C 142.811 230.924,143.630 231.308,144.400 231.603 C 145.170 231.898,146.250 232.446,146.800 232.821 C 147.350 233.195,149.330 234.278,151.200 235.226 C 153.070 236.175,155.078 237.277,155.662 237.676 C 156.246 238.074,156.989 238.400,157.313 238.400 C 157.638 238.400,158.880 238.985,160.075 239.700 C 161.269 240.415,165.026 242.419,168.423 244.154 C 181.068 250.612,181.660 250.983,182.444 252.957 C 182.716 253.641,182.980 254.258,183.032 254.329 C 183.207 254.571,185.578 253.192,190.295 250.105 C 192.883 248.411,195.360 246.825,195.800 246.579 C 196.240 246.333,198.173 245.112,200.096 243.866 C 202.019 242.620,203.679 241.600,203.785 241.600 C 203.890 241.600,204.747 241.084,205.688 240.453 C 207.398 239.307,210.691 237.186,215.600 234.068 C 217.030 233.160,218.417 232.233,218.683 232.008 C 218.949 231.784,219.285 231.600,219.429 231.600 C 219.574 231.600,220.887 230.816,222.346 229.857 C 228.032 226.124,231.498 224.000,231.907 224.000 C 232.141 224.000,232.393 223.854,232.467 223.676 C 232.639 223.257,247.148 214.000,247.633 214.000 C 247.835 214.000,248.000 213.853,248.000 213.674 C 248.000 213.495,248.585 213.043,249.300 212.669 C 250.015 212.296,251.072 211.678,251.648 211.295 C 252.224 210.913,253.844 209.908,255.248 209.062 C 256.652 208.216,258.373 207.091,259.073 206.562 C 259.774 206.033,260.441 205.600,260.556 205.600 C 260.672 205.600,263.251 204.025,266.289 202.100 C 269.327 200.175,272.098 198.420,272.446 198.200 C 272.795 197.980,273.872 197.275,274.840 196.634 C 280.131 193.130,284.558 190.313,285.152 190.073 C 285.523 189.923,286.270 189.479,286.813 189.086 C 287.659 188.474,293.393 184.802,295.816 183.321 C 296.247 183.057,297.830 182.067,299.334 181.121 C 300.838 180.174,302.668 179.040,303.401 178.600 C 304.133 178.160,307.396 176.090,310.652 174.000 C 313.908 171.910,316.759 170.130,316.986 170.045 C 317.214 169.959,318.234 169.284,319.254 168.545 C 320.273 167.805,321.274 167.200,321.478 167.200 C 321.682 167.200,322.200 166.873,322.629 166.473 C 323.058 166.074,324.667 164.986,326.204 164.057 C 327.742 163.128,329.810 161.847,330.800 161.211 C 333.048 159.767,336.326 157.766,339.008 156.200 C 353.820 147.554,354.884 145.478,346.000 142.545 C 345.010 142.219,343.120 141.525,341.800 141.004 C 340.480 140.483,338.050 139.579,336.400 138.994 C 333.287 137.891,328.739 136.191,324.600 134.585 C 323.280 134.073,320.400 132.995,318.200 132.191 C 316.000 131.387,313.840 130.581,313.400 130.400 C 312.395 129.987,306.245 127.713,301.000 125.814 C 298.800 125.018,296.640 124.210,296.200 124.019 C 295.760 123.828,293.645 123.025,291.500 122.236 C 289.355 121.446,285.845 120.154,283.700 119.364 C 281.555 118.575,279.440 117.781,279.000 117.600 C 278.560 117.419,276.400 116.608,274.200 115.798 C 272.000 114.988,268.130 113.551,265.600 112.605 C 263.070 111.659,259.200 110.222,257.000 109.412 C 254.800 108.601,250.930 107.160,248.400 106.210 C 245.870 105.260,242.450 103.999,240.800 103.409 C 239.150 102.819,237.440 102.183,237.000 101.996 C 236.560 101.808,234.400 101.008,232.200 100.216 C 230.000 99.425,227.840 98.615,227.400 98.416 C 220.181 95.158,217.115 94.737,213.800 96.550 M52.187 187.871 C 49.093 188.487,48.928 198.685,51.829 209.982 C 52.363 212.062,52.800 214.072,52.800 214.450 C 52.800 214.827,53.059 215.645,53.376 216.268 C 54.294 218.075,55.200 220.287,55.200 220.722 C 55.200 220.943,55.830 222.238,56.600 223.600 C 57.370 224.962,58.000 226.151,58.000 226.242 C 58.000 226.923,60.797 230.018,62.298 230.997 C 64.008 232.113,71.036 236.053,72.400 236.661 C 72.730 236.808,74.260 237.675,75.800 238.587 C 77.340 239.499,79.632 240.742,80.892 241.348 C 82.153 241.955,83.287 242.617,83.412 242.820 C 83.537 243.022,84.486 243.611,85.520 244.129 C 87.794 245.267,97.639 250.761,98.200 251.206 C 98.637 251.552,104.045 254.457,106.600 255.718 C 107.480 256.152,108.709 256.933,109.331 257.454 C 109.953 257.974,110.622 258.400,110.817 258.400 C 111.118 258.400,119.611 263.107,122.800 265.041 C 123.350 265.374,124.728 266.077,125.863 266.602 C 126.998 267.128,128.056 267.767,128.214 268.023 C 128.373 268.280,129.424 268.918,130.551 269.442 C 132.737 270.459,136.647 272.587,137.366 273.152 C 137.605 273.339,139.600 274.441,141.800 275.600 C 144.000 276.759,146.027 277.887,146.305 278.107 C 146.872 278.555,148.619 279.549,151.000 280.776 C 151.880 281.230,153.320 282.045,154.200 282.587 C 155.080 283.130,156.610 283.968,157.600 284.449 C 158.590 284.930,159.670 285.539,160.000 285.803 C 160.330 286.067,161.590 286.797,162.800 287.426 C 164.010 288.054,165.450 288.862,166.000 289.222 C 166.971 289.858,168.749 290.839,175.400 294.405 C 177.160 295.349,179.590 296.654,180.800 297.304 C 186.873 300.569,188.800 302.225,188.800 304.180 C 188.800 305.535,187.168 306.541,210.800 290.612 C 233.638 275.218,236.075 273.600,236.422 273.600 C 236.593 273.600,236.793 273.458,236.867 273.284 C 236.940 273.111,240.870 270.382,245.600 267.219 C 250.330 264.057,259.960 257.593,267.000 252.854 C 288.692 238.254,298.755 231.496,302.350 229.115 C 304.247 227.858,305.980 226.688,306.200 226.515 C 306.420 226.342,310.368 223.680,314.973 220.600 C 324.071 214.515,328.662 211.434,329.600 210.788 C 329.930 210.560,335.240 207.001,341.400 202.878 C 355.835 193.217,355.968 192.744,345.320 188.965 C 342.901 188.106,342.375 188.372,343.321 189.974 C 344.873 192.601,345.070 192.398,333.800 199.750 C 331.600 201.185,327.942 203.628,325.671 205.180 C 323.401 206.731,321.472 208.000,321.386 208.000 C 321.301 208.000,319.725 209.035,317.885 210.300 C 316.045 211.565,314.264 212.780,313.926 213.000 C 313.588 213.220,312.792 213.750,312.156 214.179 C 305.395 218.733,270.543 241.837,270.261 241.952 C 270.055 242.036,269.598 242.338,269.244 242.624 C 268.235 243.438,247.767 257.077,244.200 259.311 C 242.440 260.414,240.910 261.434,240.800 261.579 C 240.569 261.882,232.499 267.244,231.600 267.691 C 230.937 268.021,223.684 272.953,222.917 273.595 C 222.651 273.818,222.261 274.000,222.050 274.000 C 221.839 274.000,221.607 274.141,221.533 274.313 C 221.460 274.485,219.780 275.670,217.800 276.948 C 215.820 278.225,213.750 279.598,213.200 279.999 C 210.443 282.009,190.281 295.200,189.965 295.200 C 189.764 295.200,189.600 295.358,189.600 295.551 C 189.600 297.391,180.910 294.820,180.067 292.730 C 179.993 292.549,179.693 292.400,179.400 292.400 C 179.106 292.400,177.496 291.590,175.822 290.600 C 174.147 289.610,172.689 288.800,172.581 288.800 C 172.472 288.800,171.683 288.357,170.826 287.816 C 169.969 287.276,167.678 285.988,165.734 284.956 C 163.790 283.923,161.529 282.656,160.708 282.139 C 159.887 281.623,159.101 281.200,158.960 281.200 C 158.820 281.200,157.691 280.594,156.452 279.854 C 155.214 279.114,153.120 277.915,151.800 277.190 C 146.912 274.505,142.555 272.089,141.000 271.203 C 140.120 270.702,138.419 269.758,137.219 269.107 C 136.020 268.455,133.770 267.195,132.219 266.306 C 130.669 265.416,128.500 264.206,127.400 263.615 C 126.300 263.025,124.320 261.943,123.000 261.212 C 114.150 256.310,109.465 253.698,107.200 252.403 C 105.770 251.586,103.610 250.371,102.400 249.703 C 99.732 248.232,90.815 243.255,88.600 242.002 C 87.720 241.504,85.740 240.423,84.200 239.600 C 82.660 238.777,80.680 237.694,79.800 237.195 C 78.920 236.695,77.480 235.892,76.600 235.410 C 75.720 234.929,74.280 234.120,73.400 233.613 C 72.520 233.106,70.810 232.158,69.600 231.506 C 68.390 230.854,66.770 229.953,66.000 229.503 C 64.439 228.591,61.616 225.655,61.606 224.933 C 61.603 224.677,61.446 224.407,61.259 224.333 C 60.814 224.160,58.000 218.202,58.000 217.435 C 58.000 217.112,57.840 216.748,57.644 216.627 C 57.449 216.506,57.177 215.964,57.041 215.421 C 56.905 214.879,56.582 213.932,56.323 213.318 C 56.064 212.703,55.626 211.210,55.351 210.000 C 55.076 208.790,54.656 206.990,54.417 206.000 C 52.668 198.739,52.421 191.672,53.799 188.300 C 54.092 187.583,53.895 187.531,52.187 187.871 M47.320 196.000 C 47.320 197.210,47.395 197.705,47.487 197.100 C 47.578 196.495,47.578 195.505,47.487 194.900 C 47.395 194.295,47.320 194.790,47.320 196.000 " stroke="none" fill="#ca5626" fill-rule="evenodd"></path><path id="path2" d="M335.800 159.388 C 335.140 159.929,334.462 160.378,334.293 160.386 C 334.028 160.398,328.946 163.610,324.378 166.653 C 323.597 167.174,322.833 167.600,322.682 167.600 C 322.530 167.600,321.943 168.003,321.376 168.495 C 320.810 168.988,319.391 169.933,318.222 170.595 C 317.054 171.258,314.861 172.568,313.349 173.507 C 309.764 175.733,309.681 175.785,305.216 178.643 C 291.299 187.550,285.254 191.387,284.252 191.953 C 283.620 192.309,281.730 193.519,280.052 194.641 C 278.373 195.764,276.379 197.003,275.620 197.393 C 274.860 197.784,273.988 198.355,273.682 198.661 C 273.375 198.968,272.601 199.489,271.962 199.820 C 271.323 200.150,270.800 200.576,270.800 200.767 C 270.800 200.957,270.351 201.226,269.801 201.364 C 269.252 201.502,268.037 202.130,267.101 202.760 C 266.166 203.389,264.230 204.651,262.800 205.563 C 261.370 206.475,259.930 207.398,259.600 207.613 C 259.270 207.828,257.560 208.907,255.800 210.010 C 254.040 211.112,252.251 212.236,251.825 212.507 C 251.398 212.778,249.279 214.125,247.115 215.500 C 244.951 216.875,243.122 218.000,243.051 218.000 C 242.981 218.000,241.490 218.945,239.738 220.100 C 237.987 221.255,235.244 223.010,233.643 224.000 C 229.302 226.684,227.895 227.570,222.200 231.201 C 219.340 233.024,216.460 234.804,215.800 235.158 C 215.140 235.511,214.510 235.913,214.400 236.050 C 214.138 236.378,202.695 243.583,200.500 244.803 C 199.565 245.322,198.800 245.899,198.800 246.084 C 198.800 246.268,198.330 246.598,197.756 246.817 C 197.181 247.035,195.966 247.723,195.056 248.346 C 185.832 254.655,181.317 256.813,180.244 255.427 C 180.000 255.111,177.460 253.652,174.600 252.183 C 171.740 250.714,168.320 248.924,167.000 248.204 C 165.680 247.485,161.720 245.410,158.200 243.594 C 154.680 241.778,150.720 239.712,149.400 239.002 C 144.315 236.269,139.966 233.982,133.800 230.799 C 130.280 228.982,126.590 227.046,125.600 226.497 C 124.610 225.948,121.190 224.150,118.000 222.503 C 114.810 220.855,110.940 218.830,109.400 218.004 C 106.306 216.343,99.361 212.705,92.600 209.203 C 90.180 207.949,85.950 205.746,83.200 204.308 C 80.450 202.869,76.310 200.707,74.000 199.505 C 71.690 198.302,68.360 196.547,66.600 195.605 C 57.426 190.696,54.764 189.476,54.280 189.962 C 53.635 190.610,53.686 198.585,54.357 202.000 C 57.184 216.374,61.975 226.678,67.005 229.199 C 67.662 229.529,71.440 231.615,75.400 233.836 C 79.360 236.057,83.590 238.416,84.800 239.079 C 94.372 244.322,98.743 246.697,99.600 247.119 C 100.150 247.389,101.410 248.115,102.400 248.732 C 103.390 249.348,105.377 250.498,106.815 251.287 C 108.254 252.076,110.377 253.279,111.533 253.960 C 112.689 254.642,113.739 255.200,113.865 255.200 C 113.992 255.200,115.109 255.808,116.348 256.552 C 117.586 257.296,119.770 258.535,121.200 259.305 C 122.630 260.076,128.390 263.273,134.000 266.410 C 139.610 269.546,145.370 272.737,146.800 273.499 C 148.230 274.262,149.580 275.021,149.800 275.185 C 150.020 275.349,151.460 276.167,153.000 277.002 C 157.211 279.286,157.384 279.384,157.600 279.600 C 157.710 279.710,158.700 280.266,159.800 280.836 C 162.794 282.387,166.956 284.679,171.114 287.067 C 173.157 288.240,174.904 289.200,174.997 289.200 C 175.089 289.200,176.050 289.722,177.133 290.360 C 178.215 290.999,180.158 292.108,181.450 292.826 C 182.743 293.543,184.390 294.461,185.112 294.865 C 187.056 295.954,187.950 295.779,190.592 293.796 C 191.908 292.808,193.111 292.000,193.266 292.000 C 193.422 292.000,195.372 290.740,197.600 289.200 C 199.828 287.660,201.732 286.400,201.830 286.400 C 201.928 286.400,203.639 285.275,205.632 283.900 C 207.625 282.525,209.665 281.130,210.165 280.800 C 210.666 280.470,211.778 279.726,212.638 279.148 C 213.497 278.569,216.540 276.556,219.400 274.675 C 222.260 272.793,225.860 270.400,227.400 269.357 C 234.706 264.407,235.958 263.600,236.332 263.600 C 236.553 263.600,236.793 263.465,236.867 263.300 C 237.026 262.942,244.221 258.000,244.584 258.000 C 244.722 258.000,245.320 257.550,245.913 257.000 C 246.507 256.450,247.131 256.000,247.302 256.000 C 247.607 256.000,252.010 253.216,252.400 252.777 C 252.510 252.653,254.130 251.533,256.000 250.287 C 257.870 249.042,259.850 247.713,260.400 247.334 C 260.950 246.954,262.930 245.648,264.800 244.431 C 266.670 243.215,268.260 242.080,268.333 241.910 C 268.407 241.739,268.660 241.600,268.896 241.600 C 269.131 241.600,269.914 241.150,270.636 240.600 C 271.357 240.050,272.053 239.600,272.183 239.600 C 272.313 239.600,274.741 237.980,277.578 236.000 C 280.415 234.020,282.826 232.400,282.934 232.400 C 283.043 232.400,285.233 230.960,287.800 229.200 C 290.367 227.440,292.631 226.000,292.831 226.000 C 293.030 226.000,293.418 225.640,293.693 225.200 C 293.968 224.760,294.356 224.400,294.555 224.400 C 294.754 224.400,295.926 223.743,297.159 222.939 C 298.391 222.136,300.480 220.782,301.800 219.931 C 303.120 219.080,304.560 218.103,305.000 217.761 C 305.440 217.418,307.690 215.894,310.000 214.373 C 312.310 212.852,314.650 211.303,315.200 210.930 C 315.750 210.557,318.810 208.530,322.000 206.426 C 325.190 204.322,327.980 202.464,328.200 202.298 C 329.907 201.009,334.045 198.400,334.382 198.400 C 334.612 198.400,334.800 198.265,334.801 198.100 C 334.801 197.935,335.656 197.268,336.701 196.618 C 342.642 192.922,343.267 192.159,342.234 189.860 C 341.922 189.167,341.577 188.060,341.466 187.400 C 341.074 185.057,340.348 182.588,339.806 181.757 C 338.535 179.807,337.719 165.227,338.594 160.100 C 338.949 158.022,337.818 157.733,335.800 159.388 " stroke="none" fill="#ededec" fill-rule="evenodd"></path><path id="path3" d="M214.794 95.534 C 214.027 95.937,211.060 97.492,208.200 98.989 C 205.340 100.486,202.820 101.841,202.600 101.999 C 202.380 102.158,199.140 103.876,195.400 105.817 C 188.144 109.583,185.989 110.796,186.550 110.799 C 186.859 110.800,192.082 108.115,199.400 104.194 C 200.720 103.487,203.510 102.007,205.600 100.906 C 207.690 99.805,210.970 98.070,212.889 97.052 C 217.087 94.824,217.707 94.798,222.619 96.638 C 224.730 97.429,226.539 97.995,226.638 97.895 C 227.001 97.533,219.064 94.800,217.648 94.800 C 216.845 94.800,215.561 95.130,214.794 95.534 M227.420 98.330 C 227.964 98.803,236.031 101.702,236.235 101.498 C 236.328 101.405,235.099 100.838,233.502 100.239 C 231.906 99.639,230.009 98.890,229.286 98.574 C 227.830 97.938,226.815 97.805,227.420 98.330 M237.000 102.000 C 237.136 102.220,237.472 102.400,237.748 102.400 C 238.023 102.400,239.402 102.852,240.811 103.404 C 242.221 103.957,243.544 104.352,243.753 104.282 C 244.109 104.164,237.709 101.600,237.056 101.600 C 236.889 101.600,236.864 101.780,237.000 102.000 M244.400 104.544 C 244.400 104.683,249.195 106.534,257.200 109.485 C 262.128 111.301,269.186 113.940,274.118 115.811 C 276.273 116.628,278.148 117.185,278.285 117.048 C 278.422 116.912,278.440 116.800,278.325 116.800 C 278.083 116.800,276.123 116.084,264.200 111.637 C 259.360 109.832,253.690 107.725,251.600 106.954 C 249.510 106.184,247.209 105.294,246.486 104.977 C 245.212 104.417,244.400 104.249,244.400 104.544 M183.207 112.244 C 181.781 113.026,178.991 114.526,177.007 115.577 C 175.023 116.627,171.420 118.537,169.000 119.819 C 163.923 122.509,162.063 123.596,162.531 123.599 C 162.821 123.600,168.196 120.829,173.000 118.202 C 173.880 117.721,176.850 116.137,179.600 114.682 C 184.115 112.293,186.543 110.829,186.000 110.824 C 185.890 110.823,184.633 111.462,183.207 112.244 M279.000 117.600 C 279.136 117.820,279.462 117.999,279.724 117.999 C 279.986 117.998,281.865 118.628,283.900 119.399 C 285.935 120.169,289.318 121.452,291.418 122.248 C 293.518 123.045,295.319 123.615,295.419 123.514 C 295.578 123.355,290.322 121.303,281.641 118.134 C 278.724 117.069,278.664 117.057,279.000 117.600 M158.200 125.527 C 156.220 126.579,152.260 128.669,149.400 130.171 C 146.540 131.673,143.660 133.216,143.000 133.599 C 142.340 133.982,139.640 135.422,137.000 136.799 C 127.352 141.830,123.963 143.697,124.144 143.878 C 124.246 143.980,125.291 143.532,126.465 142.884 C 127.639 142.235,130.850 140.532,133.600 139.099 C 136.350 137.666,139.500 136.004,140.600 135.406 C 141.700 134.808,144.490 133.323,146.800 132.106 C 149.110 130.889,152.710 128.961,154.800 127.822 C 156.890 126.683,159.290 125.402,160.133 124.976 C 161.414 124.328,162.395 123.578,161.924 123.608 C 161.856 123.612,160.180 124.476,158.200 125.527 M296.200 124.000 C 296.336 124.220,296.624 124.400,296.841 124.400 C 297.058 124.400,298.982 125.044,301.117 125.831 C 309.821 129.039,312.639 130.087,313.400 130.400 C 313.840 130.581,316.000 131.387,318.200 132.191 C 320.400 132.995,323.280 134.073,324.600 134.585 C 328.739 136.191,333.287 137.891,336.400 138.994 C 338.050 139.579,340.480 140.483,341.800 141.004 C 343.120 141.525,345.010 142.219,346.000 142.545 C 354.884 145.478,353.820 147.554,339.008 156.200 C 336.326 157.766,333.048 159.767,330.800 161.211 C 329.810 161.847,327.742 163.128,326.204 164.057 C 324.667 164.986,323.058 166.074,322.629 166.473 C 322.200 166.873,321.682 167.200,321.478 167.200 C 321.274 167.200,320.273 167.805,319.254 168.545 C 318.234 169.284,317.214 169.959,316.986 170.045 C 316.759 170.130,313.908 171.910,310.652 174.000 C 307.396 176.090,304.133 178.160,303.401 178.600 C 302.668 179.040,300.838 180.174,299.334 181.121 C 297.830 182.067,296.247 183.057,295.816 183.321 C 293.393 184.802,287.659 188.474,286.813 189.086 C 286.270 189.479,285.523 189.923,285.152 190.073 C 284.558 190.313,280.131 193.130,274.840 196.634 C 273.872 197.275,272.795 197.980,272.446 198.200 C 272.098 198.420,269.327 200.175,266.289 202.100 C 263.251 204.025,260.672 205.600,260.556 205.600 C 260.441 205.600,259.774 206.033,259.073 206.562 C 258.373 207.091,256.652 208.216,255.248 209.062 C 253.844 209.908,252.224 210.913,251.648 211.295 C 251.072 211.678,250.015 212.296,249.300 212.669 C 248.585 213.043,248.000 213.495,248.000 213.674 C 248.000 213.853,247.835 214.000,247.633 214.000 C 247.148 214.000,232.639 223.257,232.467 223.676 C 232.393 223.854,232.141 224.000,231.907 224.000 C 231.498 224.000,228.032 226.124,222.346 229.857 C 220.887 230.816,219.574 231.600,219.429 231.600 C 219.285 231.600,218.949 231.784,218.683 232.008 C 218.417 232.233,217.030 233.160,215.600 234.068 C 210.691 237.186,207.398 239.307,205.688 240.453 C 204.747 241.084,203.890 241.600,203.785 241.600 C 203.679 241.600,202.019 242.620,200.096 243.866 C 198.173 245.112,196.240 246.333,195.800 246.579 C 195.360 246.825,192.883 248.411,190.295 250.105 C 185.578 253.192,183.207 254.571,183.032 254.329 C 182.980 254.258,182.716 253.641,182.444 252.957 C 181.660 250.983,181.068 250.612,168.423 244.154 C 165.026 242.419,161.269 240.415,160.075 239.700 C 158.880 238.985,157.638 238.400,157.313 238.400 C 156.989 238.400,156.246 238.074,155.662 237.676 C 155.078 237.277,153.070 236.175,151.200 235.226 C 149.330 234.278,147.350 233.195,146.800 232.821 C 146.250 232.446,145.170 231.898,144.400 231.603 C 143.630 231.308,142.811 230.924,142.581 230.751 C 142.350 230.578,140.640 229.686,138.781 228.770 C 136.921 227.854,134.922 226.766,134.338 226.352 C 133.754 225.938,133.121 225.600,132.932 225.600 C 132.742 225.600,130.160 224.318,127.193 222.751 C 124.227 221.183,120.000 218.952,117.800 217.791 C 115.600 216.631,109.120 213.302,103.400 210.394 C 97.680 207.486,92.550 204.796,92.000 204.417 C 91.450 204.038,88.120 202.315,84.600 200.590 C 81.080 198.864,78.110 197.341,78.000 197.204 C 77.765 196.913,76.912 196.466,65.600 190.701 C 60.870 188.291,55.800 185.707,54.334 184.960 C 52.868 184.212,51.343 183.600,50.945 183.600 C 49.997 183.600,50.730 183.082,54.600 181.019 C 57.513 179.465,58.460 178.800,57.760 178.800 C 57.540 178.800,57.189 178.956,56.980 179.147 C 56.771 179.338,55.250 180.179,53.600 181.016 C 51.950 181.854,50.030 182.955,49.334 183.464 C 43.600 187.654,47.463 212.687,56.100 227.307 C 57.642 229.916,58.835 231.310,58.273 229.845 C 58.110 229.422,58.167 229.256,58.421 229.413 C 58.647 229.553,58.732 229.983,58.610 230.369 C 58.070 232.069,69.450 240.013,71.483 239.356 C 72.070 239.167,72.093 239.200,71.611 239.541 C 71.111 239.894,71.141 240.002,71.811 240.254 C 72.245 240.418,73.433 241.040,74.450 241.636 C 79.283 244.469,80.789 245.182,81.474 244.960 C 82.066 244.768,82.091 244.802,81.611 245.141 C 81.111 245.494,81.141 245.602,81.811 245.856 C 82.245 246.020,83.582 246.744,84.782 247.464 C 86.260 248.351,87.293 248.712,87.982 248.581 C 88.796 248.426,88.845 248.455,88.226 248.725 C 87.196 249.174,93.099 252.543,94.257 252.166 C 94.807 251.987,94.860 252.025,94.460 252.311 C 94.052 252.603,94.441 252.984,96.060 253.878 C 97.237 254.528,99.010 255.519,100.000 256.082 C 106.066 259.529,108.535 260.764,108.905 260.535 C 109.135 260.393,109.209 260.461,109.070 260.687 C 108.930 260.913,109.848 261.663,111.108 262.354 C 112.369 263.045,114.120 264.015,115.000 264.508 C 115.880 265.002,117.860 266.102,119.400 266.953 C 120.940 267.804,123.031 269.021,124.047 269.658 C 125.204 270.383,126.175 270.724,126.647 270.570 C 127.131 270.412,127.228 270.449,126.918 270.674 C 126.216 271.185,130.828 273.604,132.053 273.367 C 132.875 273.208,132.895 273.229,132.209 273.529 C 131.452 273.859,131.461 273.897,132.409 274.393 C 135.343 275.928,137.264 277.009,156.600 288.006 C 166.198 293.464,168.834 294.829,169.283 294.570 C 169.567 294.406,169.666 294.419,169.503 294.600 C 169.164 294.974,169.700 295.382,172.800 297.110 C 174.010 297.785,177.880 299.970,181.400 301.966 C 188.501 305.993,188.820 306.076,191.040 304.476 C 191.898 303.857,201.150 297.616,211.600 290.607 C 222.050 283.597,235.460 274.594,241.400 270.599 C 247.340 266.604,259.670 258.325,268.800 252.201 C 277.930 246.077,290.260 237.798,296.200 233.801 C 302.140 229.805,314.470 221.521,323.600 215.392 C 356.945 193.008,354.035 195.190,353.256 193.153 C 352.685 191.658,351.722 191.043,346.838 189.051 C 341.589 186.910,341.568 186.913,342.728 189.713 C 343.939 192.634,344.138 192.331,338.581 196.012 C 335.821 197.841,333.443 199.531,333.297 199.768 C 333.004 200.244,333.437 199.978,339.700 195.845 C 344.367 192.765,344.675 192.266,343.321 189.974 C 342.375 188.372,342.901 188.106,345.320 188.965 C 355.968 192.744,355.835 193.217,341.400 202.878 C 335.240 207.001,329.930 210.560,329.600 210.788 C 328.662 211.434,324.071 214.515,314.973 220.600 C 310.368 223.680,306.420 226.342,306.200 226.515 C 305.980 226.688,304.247 227.858,302.350 229.115 C 298.755 231.496,288.692 238.254,267.000 252.854 C 259.960 257.593,250.330 264.057,245.600 267.219 C 240.870 270.382,236.940 273.111,236.867 273.284 C 236.793 273.458,236.593 273.600,236.422 273.600 C 236.075 273.600,233.638 275.218,210.800 290.612 C 187.168 306.541,188.800 305.535,188.800 304.180 C 188.800 302.225,186.873 300.569,180.800 297.304 C 179.590 296.654,177.160 295.349,175.400 294.405 C 168.749 290.839,166.971 289.858,166.000 289.222 C 165.450 288.862,164.010 288.054,162.800 287.426 C 161.590 286.797,160.330 286.067,160.000 285.803 C 159.670 285.539,158.590 284.930,157.600 284.449 C 156.610 283.968,155.080 283.130,154.200 282.587 C 153.320 282.045,151.880 281.230,151.000 280.776 C 148.619 279.549,146.872 278.555,146.305 278.107 C 146.027 277.887,144.000 276.759,141.800 275.600 C 139.600 274.441,137.605 273.339,137.366 273.152 C 136.647 272.587,132.737 270.459,130.551 269.442 C 129.424 268.918,128.373 268.280,128.214 268.023 C 128.056 267.767,126.998 267.128,125.863 266.602 C 124.728 266.077,123.350 265.374,122.800 265.041 C 119.611 263.107,111.118 258.400,110.817 258.400 C 110.622 258.400,109.953 257.974,109.331 257.454 C 108.709 256.933,107.480 256.152,106.600 255.718 C 104.045 254.457,98.637 251.552,98.200 251.206 C 97.639 250.761,87.794 245.267,85.520 244.129 C 84.486 243.611,83.537 243.022,83.412 242.820 C 83.287 242.617,82.153 241.955,80.892 241.348 C 79.632 240.742,77.340 239.499,75.800 238.587 C 74.260 237.675,72.730 236.808,72.400 236.661 C 71.036 236.053,64.008 232.113,62.298 230.997 C 60.797 230.018,58.000 226.923,58.000 226.242 C 58.000 226.151,57.370 224.962,56.600 223.600 C 55.830 222.238,55.200 220.943,55.200 220.722 C 55.200 220.287,54.294 218.075,53.376 216.268 C 53.059 215.645,52.800 214.827,52.800 214.450 C 52.800 214.072,52.363 212.062,51.829 209.982 C 49.175 199.648,49.023 192.365,51.370 188.147 C 51.707 187.542,54.064 187.646,53.815 188.255 C 53.236 189.666,53.103 190.744,53.631 189.745 C 53.911 189.215,54.432 188.911,55.003 188.945 C 55.509 188.975,55.856 189.109,55.774 189.241 C 55.692 189.374,57.285 190.322,59.313 191.348 C 61.341 192.374,64.890 194.213,67.200 195.435 C 69.510 196.657,74.190 199.107,77.600 200.880 C 81.010 202.652,85.240 204.866,87.000 205.799 C 88.760 206.733,93.052 208.973,96.538 210.777 C 100.024 212.582,103.624 214.469,104.538 214.972 C 106.679 216.148,115.406 220.730,118.924 222.524 C 120.550 223.353,122.000 223.836,122.524 223.722 C 123.186 223.577,123.263 223.627,122.838 223.927 C 122.403 224.234,122.766 224.571,124.438 225.416 C 126.458 226.436,128.233 227.363,137.700 232.348 C 139.735 233.420,143.560 235.421,146.200 236.796 C 148.840 238.171,152.800 240.240,155.000 241.396 C 157.200 242.551,161.340 244.712,164.200 246.198 C 167.060 247.685,170.480 249.485,171.800 250.198 C 183.612 256.584,181.603 256.282,187.434 252.549 C 190.055 250.871,198.680 245.405,206.600 240.402 C 214.520 235.398,224.330 229.192,228.400 226.610 C 232.470 224.027,238.410 220.283,241.600 218.289 C 244.790 216.295,247.957 214.244,248.638 213.732 C 249.319 213.219,249.987 212.800,250.124 212.800 C 250.261 212.800,251.864 211.839,253.686 210.664 C 255.509 209.490,262.490 205.055,269.200 200.808 C 275.910 196.562,282.030 192.687,282.800 192.196 C 290.094 187.550,309.788 175.106,311.200 174.251 C 312.190 173.652,315.790 171.381,319.200 169.206 C 324.415 165.878,337.119 157.843,344.956 152.915 C 346.080 152.208,347.810 151.143,348.800 150.549 C 352.453 148.354,352.964 147.451,351.815 145.230 C 351.166 143.974,351.151 143.967,340.845 140.160 C 336.970 138.729,332.180 136.951,330.200 136.210 C 328.220 135.469,324.856 134.219,322.725 133.434 C 320.594 132.648,318.434 131.837,317.925 131.631 C 317.416 131.425,314.750 130.420,312.000 129.399 C 309.250 128.377,306.370 127.294,305.600 126.991 C 298.926 124.367,295.815 123.377,296.200 124.000 M115.600 148.069 C 111.530 150.258,107.157 152.600,105.883 153.274 C 104.608 153.948,103.655 154.588,103.763 154.697 C 103.872 154.806,105.185 154.219,106.681 153.392 C 108.176 152.566,111.110 150.992,113.200 149.895 C 120.246 146.197,122.998 144.697,123.380 144.348 C 124.321 143.486,122.520 144.348,115.600 148.069 M95.600 158.727 C 81.904 165.965,75.214 169.526,71.400 171.609 C 70.300 172.209,68.077 173.365,66.459 174.176 C 64.841 174.987,63.596 175.730,63.692 175.825 C 63.861 175.995,67.672 174.102,74.200 170.606 C 75.960 169.663,79.020 168.038,81.000 166.993 C 82.980 165.949,85.384 164.660,86.343 164.131 C 88.519 162.929,95.171 159.409,99.390 157.229 C 102.178 155.787,103.753 154.782,103.180 154.808 C 103.081 154.813,99.670 156.577,95.600 158.727 M60.473 177.284 C 59.303 177.942,58.418 178.551,58.505 178.638 C 58.681 178.815,63.200 176.439,63.200 176.170 C 63.200 175.846,62.589 176.095,60.473 177.284 M52.942 194.200 C 52.941 196.180,53.008 197.040,53.092 196.112 C 53.176 195.184,53.177 193.564,53.095 192.512 C 53.012 191.460,52.943 192.220,52.942 194.200 M47.487 197.100 C 47.395 197.705,47.320 197.210,47.320 196.000 C 47.320 194.790,47.395 194.295,47.487 194.900 C 47.578 195.505,47.578 196.495,47.487 197.100 M53.446 200.200 C 53.551 201.520,53.799 203.320,53.996 204.200 C 54.193 205.080,54.464 206.316,54.597 206.947 C 55.171 209.667,55.144 207.419,54.567 204.365 C 53.368 198.029,53.233 197.530,53.446 200.200 M328.200 202.956 C 324.613 205.354,233.543 265.930,198.883 288.972 C 193.979 292.232,190.040 294.973,190.129 295.063 C 190.267 295.200,210.213 282.177,213.200 279.999 C 213.750 279.598,215.820 278.225,217.800 276.948 C 219.780 275.670,221.460 274.485,221.533 274.313 C 221.607 274.141,221.839 274.000,222.050 274.000 C 222.261 274.000,222.651 273.818,222.917 273.595 C 223.684 272.953,230.937 268.021,231.600 267.691 C 232.499 267.244,240.569 261.882,240.800 261.579 C 240.910 261.434,242.440 260.414,244.200 259.311 C 247.767 257.077,268.235 243.438,269.244 242.624 C 269.598 242.338,270.055 242.036,270.261 241.952 C 270.543 241.837,305.395 218.733,312.156 214.179 C 312.792 213.750,313.588 213.220,313.926 213.000 C 314.264 212.780,316.045 211.565,317.885 210.300 C 319.725 209.035,321.301 208.000,321.386 208.000 C 321.472 208.000,323.401 206.729,325.671 205.175 C 327.942 203.621,330.475 201.909,331.300 201.370 C 332.554 200.551,333.145 199.976,332.700 200.007 C 332.645 200.011,330.620 201.338,328.200 202.956 M55.471 210.400 C 55.602 211.390,55.841 212.380,56.002 212.600 C 56.164 212.820,56.521 213.720,56.796 214.600 C 57.071 215.480,57.481 216.380,57.707 216.600 C 57.985 216.870,58.049 216.803,57.907 216.392 C 57.791 216.058,57.292 214.528,56.799 212.992 C 55.478 208.882,55.197 208.334,55.471 210.400 M58.027 217.493 C 57.989 218.192,60.926 224.400,61.294 224.400 C 61.462 224.400,60.999 223.185,60.266 221.700 C 59.532 220.215,58.734 218.550,58.493 218.000 C 58.252 217.450,58.042 217.222,58.027 217.493 M61.606 225.044 C 61.629 226.364,69.909 232.624,70.651 231.883 C 70.754 231.779,69.502 230.960,67.868 230.063 C 66.144 229.117,64.204 227.646,63.248 226.560 C 62.342 225.530,61.603 224.848,61.606 225.044 M72.000 232.752 C 72.550 233.209,73.145 233.586,73.321 233.591 C 73.498 233.596,74.305 234.050,75.114 234.600 C 75.923 235.150,76.760 235.600,76.973 235.600 C 77.637 235.600,76.737 234.980,73.800 233.415 C 72.260 232.594,71.450 232.296,72.000 232.752 M77.800 235.917 C 78.234 236.359,79.748 237.226,84.400 239.696 C 86.050 240.572,87.629 241.475,87.910 241.702 C 88.190 241.928,88.514 242.019,88.630 241.903 C 88.746 241.787,86.897 240.614,84.520 239.297 C 79.240 236.369,77.273 235.380,77.800 235.917 M89.400 242.303 C 89.746 242.664,93.095 244.571,102.400 249.703 C 103.610 250.371,105.770 251.586,107.200 252.403 C 109.562 253.754,116.865 257.823,123.000 261.207 C 124.320 261.935,126.006 262.870,126.747 263.285 C 127.488 263.700,128.168 263.965,128.259 263.874 C 128.350 263.784,124.503 261.543,119.712 258.894 C 114.920 256.245,107.400 252.060,103.000 249.594 C 92.683 243.811,88.903 241.785,89.400 242.303 M129.000 264.321 C 129.385 264.724,132.634 266.616,137.219 269.107 C 138.419 269.758,140.120 270.702,141.000 271.203 C 142.555 272.089,146.912 274.505,151.800 277.190 C 153.120 277.915,155.190 279.091,156.400 279.803 C 157.610 280.515,158.781 281.166,159.003 281.249 C 159.224 281.332,161.262 282.452,163.531 283.738 C 165.800 285.025,167.741 285.992,167.845 285.889 C 167.948 285.785,167.128 285.228,166.023 284.650 C 164.918 284.073,160.546 281.648,156.307 279.264 C 152.068 276.879,147.430 274.290,146.000 273.511 C 144.570 272.733,141.150 270.840,138.400 269.306 C 130.419 264.853,128.574 263.875,129.000 264.321 M169.134 286.715 C 169.648 287.122,170.728 287.799,171.534 288.219 C 172.340 288.640,174.331 289.759,175.957 290.706 C 177.584 291.654,179.077 292.374,179.275 292.308 C 179.474 292.242,178.413 291.519,176.918 290.700 C 170.049 286.941,168.267 286.029,169.134 286.715 M180.000 292.703 C 180.000 292.889,180.855 293.477,181.900 294.011 C 184.350 295.262,184.707 295.403,184.200 294.916 C 183.430 294.176,180.000 292.369,180.000 292.703 M184.800 295.396 C 184.800 295.497,185.358 295.868,186.041 296.221 C 187.310 296.877,189.600 296.441,189.600 295.542 C 189.600 295.344,189.139 295.484,188.575 295.853 C 187.623 296.477,187.454 296.478,186.175 295.869 C 185.419 295.508,184.800 295.295,184.800 295.396 " stroke="none" fill="#c58568" fill-rule="evenodd"></path><path id="path4" d="M212.985 96.044 C 211.233 96.947,209.620 97.868,209.400 98.090 C 209.180 98.312,210.636 97.662,212.634 96.647 C 216.758 94.552,218.125 94.388,221.237 95.615 C 222.374 96.063,223.374 96.359,223.460 96.273 C 223.799 95.934,219.040 94.400,217.650 94.400 C 216.701 94.400,215.028 94.989,212.985 96.044 M224.062 96.595 C 224.273 96.806,229.287 98.721,230.600 99.092 C 232.336 99.583,230.819 98.788,227.802 97.626 C 224.810 96.474,223.610 96.143,224.062 96.595 M202.400 101.658 C 199.870 102.999,197.620 104.282,197.400 104.509 C 196.943 104.980,206.399 100.085,206.980 99.550 C 207.683 98.902,207.019 99.208,202.400 101.658 M232.800 99.883 C 235.136 100.914,240.521 102.812,240.674 102.659 C 240.753 102.580,239.959 102.204,238.909 101.823 C 237.859 101.442,235.873 100.696,234.496 100.165 C 231.731 99.100,230.596 98.910,232.800 99.883 M241.262 102.995 C 241.473 103.206,246.487 105.121,247.800 105.492 C 249.731 106.038,247.849 105.101,244.808 104.003 C 241.458 102.793,240.902 102.635,241.262 102.995 M192.700 106.826 C 191.435 107.479,190.400 108.103,190.400 108.212 C 190.400 108.322,191.480 107.866,192.800 107.200 C 194.120 106.534,195.200 105.901,195.200 105.794 C 195.200 105.528,195.274 105.497,192.700 106.826 M251.200 106.733 C 251.530 106.936,252.250 107.224,252.800 107.371 C 253.495 107.557,253.617 107.525,253.200 107.267 C 252.870 107.064,252.150 106.776,251.600 106.629 C 250.905 106.443,250.783 106.475,251.200 106.733 M188.200 109.126 C 187.540 109.523,184.840 110.980,182.200 112.363 C 177.438 114.857,176.253 115.600,177.040 115.600 C 177.260 115.600,177.611 115.441,177.820 115.247 C 178.029 115.054,180.360 113.760,183.000 112.373 C 188.579 109.442,190.358 108.403,189.800 108.403 C 189.580 108.403,188.860 108.728,188.200 109.126 M258.800 109.564 C 259.130 109.750,259.850 110.023,260.400 110.168 L 261.400 110.433 260.400 109.831 C 259.850 109.499,259.130 109.227,258.800 109.226 C 258.267 109.225,258.267 109.262,258.800 109.564 M267.402 112.741 C 268.283 113.150,269.453 113.600,270.002 113.742 C 270.551 113.885,270.279 113.667,269.398 113.259 C 268.517 112.850,267.347 112.400,266.798 112.258 C 266.249 112.115,266.521 112.333,267.402 112.741 M272.744 114.809 C 273.703 115.244,274.693 115.587,274.944 115.570 C 275.559 115.530,272.360 114.065,271.600 114.038 C 271.270 114.027,271.785 114.374,272.744 114.809 M174.197 116.646 C 173.099 117.222,172.020 117.872,171.800 118.091 C 171.580 118.310,172.525 117.911,173.900 117.204 C 175.275 116.497,176.400 115.847,176.400 115.759 C 176.400 115.504,176.297 115.546,174.197 116.646 M277.002 116.370 C 279.065 117.290,280.683 117.787,280.301 117.384 C 280.001 117.068,276.019 115.575,275.615 115.628 C 275.497 115.644,276.121 115.978,277.002 116.370 M168.986 119.333 C 168.099 119.840,165.039 121.484,162.186 122.986 C 159.334 124.487,156.100 126.207,155.000 126.807 C 153.900 127.407,152.037 128.384,150.860 128.976 C 149.683 129.569,148.813 130.146,148.926 130.259 C 149.038 130.372,149.551 130.201,150.065 129.879 C 150.823 129.404,160.283 124.403,169.500 119.604 C 170.435 119.118,171.200 118.647,171.200 118.560 C 171.200 118.215,170.532 118.449,168.986 119.333 M284.602 119.141 C 285.483 119.550,286.653 120.000,287.202 120.142 C 287.751 120.285,287.479 120.067,286.598 119.659 C 285.717 119.250,284.547 118.800,283.998 118.658 C 283.449 118.515,283.721 118.733,284.602 119.141 M288.433 120.565 C 288.814 120.943,297.343 123.991,297.521 123.813 C 297.627 123.706,297.374 123.507,296.957 123.370 C 296.541 123.233,294.571 122.509,292.580 121.761 C 289.232 120.502,288.016 120.152,288.433 120.565 M301.600 125.482 C 303.320 126.240,305.399 126.866,305.056 126.522 C 304.777 126.243,300.759 124.781,300.415 124.833 C 300.297 124.851,300.830 125.143,301.600 125.482 M306.000 127.200 C 306.330 127.413,306.870 127.588,307.200 127.588 C 307.733 127.588,307.733 127.545,307.200 127.200 C 306.870 126.987,306.330 126.812,306.000 126.812 C 305.467 126.812,305.467 126.855,306.000 127.200 M310.400 128.733 C 310.730 128.936,311.450 129.224,312.000 129.371 C 312.695 129.557,312.817 129.525,312.400 129.267 C 312.070 129.064,311.350 128.776,310.800 128.629 C 310.105 128.443,309.983 128.475,310.400 128.733 M145.919 131.557 C 143.082 133.173,143.071 133.460,145.900 132.042 C 147.275 131.352,148.400 130.701,148.400 130.594 C 148.400 130.247,147.833 130.467,145.919 131.557 M315.600 130.800 C 315.930 131.013,316.470 131.188,316.800 131.188 C 317.333 131.188,317.333 131.145,316.800 130.800 C 316.470 130.587,315.930 130.412,315.600 130.412 C 315.067 130.412,315.067 130.455,315.600 130.800 M319.000 131.961 C 319.880 132.374,321.050 132.822,321.600 132.956 C 322.150 133.091,321.879 132.867,320.998 132.459 C 320.117 132.050,318.947 131.602,318.398 131.463 C 317.849 131.324,318.120 131.548,319.000 131.961 M140.719 134.357 C 137.882 135.973,137.871 136.260,140.700 134.842 C 142.075 134.152,143.200 133.501,143.200 133.394 C 143.200 133.047,142.633 133.267,140.719 134.357 M322.800 133.346 C 322.800 133.426,323.655 133.801,324.700 134.180 C 325.745 134.559,327.747 135.312,329.149 135.852 C 330.551 136.393,331.791 136.742,331.906 136.627 C 332.021 136.513,331.774 136.305,331.357 136.165 C 330.941 136.025,328.980 135.301,327.000 134.554 C 323.522 133.243,322.800 133.036,322.800 133.346 M332.800 137.200 C 333.130 137.413,333.670 137.588,334.000 137.588 C 334.533 137.588,334.533 137.545,334.000 137.200 C 333.670 136.987,333.130 136.812,332.800 136.812 C 332.267 136.812,332.267 136.855,332.800 137.200 M132.300 138.826 C 131.035 139.479,130.000 140.103,130.000 140.212 C 130.000 140.322,131.080 139.866,132.400 139.200 C 133.720 138.534,134.800 137.901,134.800 137.794 C 134.800 137.528,134.874 137.497,132.300 138.826 M334.800 137.717 C 335.107 138.049,339.200 139.614,339.200 139.400 C 339.200 139.194,337.113 138.275,335.565 137.798 C 335.034 137.634,334.690 137.598,334.800 137.717 M127.400 141.345 C 125.100 142.656,105.767 152.947,95.000 158.593 C 92.580 159.861,90.420 161.084,90.200 161.309 C 89.835 161.682,99.801 156.617,104.600 153.990 C 107.936 152.164,117.466 147.106,123.400 144.012 C 126.480 142.405,129.171 140.936,129.380 140.746 C 130.095 140.095,129.026 140.419,127.400 141.345 M344.800 141.533 C 345.130 141.736,345.850 142.024,346.400 142.171 C 347.095 142.357,347.217 142.325,346.800 142.067 C 346.470 141.864,345.750 141.576,345.200 141.429 C 344.505 141.243,344.383 141.275,344.800 141.533 M349.407 143.359 C 351.399 144.266,352.400 145.546,352.400 147.188 C 352.400 148.167,349.989 149.991,344.269 153.340 C 343.206 153.962,342.421 154.554,342.524 154.657 C 342.772 154.906,351.666 149.234,352.287 148.430 C 353.473 146.897,352.122 143.996,349.763 143.010 C 347.469 142.052,347.172 142.342,349.407 143.359 M333.400 160.216 C 328.780 163.135,322.341 167.206,319.091 169.262 C 315.841 171.318,312.061 173.698,310.691 174.551 C 308.632 175.834,287.672 189.094,282.800 192.196 C 282.030 192.687,275.910 196.562,269.200 200.808 C 262.490 205.055,255.509 209.490,253.686 210.664 C 251.864 211.839,250.261 212.800,250.124 212.800 C 249.987 212.800,249.319 213.219,248.638 213.732 C 247.957 214.244,244.790 216.295,241.600 218.289 C 238.410 220.283,232.470 224.027,228.400 226.610 C 224.330 229.192,214.520 235.398,206.600 240.402 C 198.680 245.405,190.055 250.871,187.434 252.549 C 182.096 255.966,182.299 255.902,180.455 254.777 C 179.715 254.326,179.031 254.036,178.934 254.133 C 178.649 254.417,181.428 256.000,182.213 256.000 C 182.608 256.000,185.338 254.470,188.280 252.600 C 191.222 250.730,193.788 249.200,193.981 249.200 C 194.175 249.200,194.393 249.065,194.467 248.900 C 194.599 248.603,199.521 245.378,202.600 243.573 C 203.480 243.056,204.260 242.491,204.333 242.317 C 204.407 242.143,204.627 242.000,204.823 242.000 C 205.310 242.000,214.167 236.352,214.333 235.935 C 214.407 235.751,214.660 235.600,214.896 235.600 C 215.132 235.600,217.502 234.190,220.162 232.468 C 224.250 229.821,229.523 226.484,234.302 223.519 C 234.906 223.144,236.255 222.351,237.300 221.755 C 238.345 221.160,239.200 220.521,239.200 220.336 C 239.200 220.151,239.408 220.000,239.662 220.000 C 239.916 220.000,240.714 219.550,241.436 219.000 C 242.157 218.450,242.939 218.000,243.173 218.000 C 243.408 218.000,243.600 217.820,243.600 217.600 C 243.600 217.380,243.776 217.200,243.990 217.200 C 244.337 217.200,262.726 205.711,267.112 202.754 C 268.053 202.119,268.932 201.600,269.064 201.600 C 269.196 201.600,270.181 200.970,271.253 200.200 C 272.325 199.430,273.381 198.800,273.601 198.800 C 273.820 198.800,274.000 198.661,274.000 198.491 C 274.000 198.321,274.675 197.830,275.500 197.400 C 276.325 196.971,278.374 195.715,280.052 194.609 C 281.731 193.504,286.951 190.182,291.652 187.227 C 296.354 184.272,302.188 180.582,304.619 179.027 C 309.973 175.601,309.925 175.631,313.355 173.507 C 314.871 172.568,316.684 171.440,317.386 171.000 C 318.087 170.560,319.412 169.762,320.330 169.226 C 321.249 168.691,322.000 168.106,322.000 167.926 C 322.000 167.747,322.175 167.600,322.388 167.600 C 322.723 167.600,328.845 163.796,339.000 157.277 C 342.263 155.183,342.182 155.243,341.967 155.054 C 341.875 154.974,338.020 157.297,333.400 160.216 M87.100 162.826 C 85.835 163.479,84.800 164.103,84.800 164.212 C 84.800 164.322,85.880 163.866,87.200 163.200 C 88.520 162.534,89.600 161.901,89.600 161.794 C 89.600 161.528,89.674 161.497,87.100 162.826 M80.319 166.357 C 77.482 167.973,77.471 168.260,80.300 166.842 C 81.675 166.152,82.800 165.501,82.800 165.394 C 82.800 165.047,82.233 165.267,80.319 166.357 M74.300 169.627 C 73.475 170.063,72.800 170.508,72.800 170.618 C 72.800 170.727,73.520 170.449,74.400 170.000 C 75.280 169.551,76.000 169.097,76.000 168.992 C 76.000 168.730,75.997 168.731,74.300 169.627 M69.099 172.351 C 65.228 174.526,65.228 174.796,69.100 172.816 C 72.148 171.257,72.874 170.773,72.100 170.817 C 71.935 170.826,70.585 171.517,69.099 172.351 M63.000 175.535 C 61.900 176.126,58.146 178.137,54.658 180.003 C 46.578 184.327,45.209 186.943,46.292 196.000 C 46.638 198.898,46.650 198.823,46.647 193.800 C 46.645 189.911,46.819 188.082,47.338 186.547 C 48.295 183.721,47.764 184.119,57.400 179.001 C 62.138 176.484,65.360 174.727,65.567 174.546 C 66.101 174.078,64.720 174.610,63.000 175.535 M341.600 187.788 C 341.600 188.331,341.960 189.417,342.400 190.200 C 343.512 192.180,343.645 191.985,339.100 195.028 C 336.845 196.538,334.910 197.887,334.800 198.027 C 334.690 198.166,334.419 198.352,334.197 198.440 C 333.611 198.673,324.236 204.901,324.000 205.215 C 323.890 205.361,323.613 205.552,323.384 205.640 C 322.600 205.942,306.200 216.970,306.067 217.285 C 305.993 217.458,305.693 217.600,305.400 217.600 C 305.107 217.600,304.807 217.737,304.733 217.904 C 304.630 218.141,296.578 223.508,292.888 225.800 C 292.533 226.020,292.054 226.341,291.822 226.514 C 289.941 227.915,283.028 232.400,282.750 232.400 C 282.558 232.400,282.400 232.580,282.400 232.800 C 282.400 233.020,282.230 233.200,282.022 233.200 C 281.814 233.200,279.565 234.640,277.024 236.400 C 274.484 238.160,272.307 239.600,272.186 239.600 C 272.065 239.600,271.749 239.785,271.483 240.011 C 271.217 240.237,267.040 243.037,262.200 246.233 C 257.360 249.429,253.129 252.259,252.797 252.522 C 252.465 252.785,250.665 253.990,248.797 255.200 C 246.929 256.410,245.340 257.535,245.267 257.700 C 245.193 257.865,244.959 258.000,244.746 258.000 C 244.289 258.000,237.062 262.861,236.867 263.300 C 236.793 263.465,236.577 263.600,236.386 263.600 C 235.944 263.600,226.245 270.075,226.067 270.490 C 225.993 270.660,225.802 270.800,225.642 270.800 C 225.351 270.800,214.230 278.007,213.317 278.787 C 213.051 279.014,212.661 279.200,212.450 279.200 C 212.239 279.200,212.007 279.361,211.933 279.558 C 211.860 279.755,211.240 280.250,210.556 280.658 C 209.871 281.066,205.821 283.740,201.556 286.600 C 197.290 289.460,193.620 291.872,193.400 291.960 C 193.180 292.048,192.910 292.228,192.800 292.361 C 192.179 293.110,187.890 295.600,187.220 295.600 C 186.489 295.600,183.275 294.027,182.090 293.089 C 181.810 292.868,181.484 292.783,181.365 292.901 C 181.035 293.232,187.165 296.499,187.716 296.286 C 187.982 296.183,195.310 291.365,204.000 285.579 C 212.690 279.794,243.200 259.501,271.800 240.483 C 342.197 193.671,343.600 192.729,343.600 192.242 C 343.600 192.007,343.208 190.869,342.728 189.713 C 341.692 187.213,341.811 186.995,343.758 187.808 C 347.288 189.283,349.371 190.031,349.000 189.690 C 348.580 189.304,342.418 186.794,341.900 186.798 C 341.735 186.799,341.600 187.245,341.600 187.788 M53.664 189.819 C 53.167 190.911,53.095 197.146,53.561 198.800 C 53.716 199.350,53.833 197.730,53.822 195.200 C 53.793 189.171,53.895 188.926,55.992 189.996 C 56.876 190.447,57.600 190.726,57.600 190.616 C 57.600 190.431,54.619 188.800,54.280 188.800 C 54.197 188.800,53.920 189.258,53.664 189.819 M350.603 190.594 C 355.508 192.751,354.736 194.494,346.400 200.091 C 342.990 202.380,332.866 209.178,323.903 215.197 C 314.940 221.215,307.664 226.198,307.735 226.269 C 307.869 226.403,310.784 224.472,331.400 210.593 C 338.220 206.002,345.910 200.838,348.488 199.118 C 353.384 195.853,354.174 195.016,353.785 193.508 C 353.349 191.823,351.270 189.949,349.926 190.033 C 349.637 190.051,349.942 190.303,350.603 190.594 M59.600 191.771 C 59.600 191.865,60.095 192.193,60.700 192.500 C 62.820 193.576,73.027 198.918,75.800 200.402 C 79.001 202.115,87.676 206.649,91.547 208.632 C 92.985 209.369,94.234 209.900,94.322 209.811 C 94.410 209.723,93.159 208.987,91.541 208.176 C 89.923 207.365,87.700 206.209,86.600 205.608 C 85.500 205.007,81.900 203.114,78.600 201.402 C 69.841 196.858,64.478 194.040,62.122 192.744 C 60.074 191.617,59.600 191.434,59.600 191.771 M46.989 201.668 C 47.211 203.884,48.411 209.323,48.630 209.103 C 48.714 209.019,48.337 206.892,47.793 204.375 C 47.248 201.859,46.887 200.641,46.989 201.668 M54.080 202.000 C 54.080 202.550,54.224 203.450,54.400 204.000 L 54.720 205.000 54.720 204.000 C 54.720 203.450,54.576 202.550,54.400 202.000 L 54.080 201.000 54.080 202.000 M55.058 207.000 C 55.192 207.880,55.456 208.870,55.644 209.200 C 56.058 209.926,55.634 207.371,55.146 206.200 C 54.936 205.695,54.903 205.991,55.058 207.000 M48.834 210.200 C 48.822 210.640,48.987 211.270,49.200 211.600 C 49.714 212.395,49.714 211.396,49.200 210.200 L 48.856 209.400 48.834 210.200 M56.034 210.600 C 56.022 211.040,56.187 211.670,56.400 212.000 C 56.914 212.795,56.914 211.796,56.400 210.600 L 56.056 209.800 56.034 210.600 M94.800 210.162 C 94.800 210.251,96.105 210.996,97.700 211.817 C 99.295 212.638,101.680 213.891,103.000 214.601 C 110.708 218.746,113.276 220.058,113.413 219.920 C 113.498 219.836,112.089 218.985,110.283 218.029 C 104.406 214.919,101.052 213.128,98.151 211.550 C 95.418 210.064,94.800 209.807,94.800 210.162 M50.629 216.000 C 50.776 216.550,51.064 217.270,51.267 217.600 C 51.525 218.017,51.557 217.895,51.371 217.200 C 51.224 216.650,50.936 215.930,50.733 215.600 C 50.475 215.183,50.443 215.305,50.629 216.000 M57.829 216.000 C 57.976 216.550,58.264 217.270,58.467 217.600 C 58.725 218.017,58.757 217.895,58.571 217.200 C 58.424 216.650,58.136 215.930,57.933 215.600 C 57.675 215.183,57.643 215.305,57.829 216.000 M58.820 218.538 C 58.763 219.497,62.033 225.179,63.600 226.842 C 65.212 228.553,72.445 232.946,79.977 236.788 C 85.468 239.590,75.736 233.883,67.400 229.414 C 64.656 227.943,62.626 225.618,60.575 221.600 C 59.621 219.730,58.831 218.352,58.820 218.538 M114.000 220.152 C 114.000 220.453,116.895 222.038,117.089 221.844 C 117.193 221.741,116.540 221.280,115.639 220.820 C 114.737 220.360,114.000 220.060,114.000 220.152 M52.412 220.449 C 52.393 220.852,54.020 224.400,54.224 224.400 C 54.327 224.400,54.148 223.772,53.827 223.004 C 53.155 221.395,52.430 220.086,52.412 220.449 M117.600 222.159 C 117.600 222.439,122.469 224.864,122.655 224.678 C 122.754 224.579,121.754 223.937,120.434 223.249 C 118.079 222.024,117.600 221.840,117.600 222.159 M54.407 224.886 C 54.368 226.531,61.615 235.636,62.918 235.579 C 63.183 235.567,62.950 235.252,62.400 234.879 C 60.288 233.445,58.554 231.282,55.281 226.000 C 54.804 225.230,54.410 224.729,54.407 224.886 M123.750 225.355 C 124.162 225.688,126.682 227.075,129.350 228.437 C 132.017 229.798,134.555 231.157,134.989 231.456 C 135.877 232.068,136.788 232.213,136.180 231.645 C 135.971 231.450,132.920 229.819,129.400 228.019 C 125.880 226.220,123.337 225.021,123.750 225.355 M300.800 230.675 C 297.390 232.966,294.420 235.038,294.200 235.279 C 293.606 235.930,294.288 235.506,301.000 231.049 C 307.927 226.451,307.380 226.841,307.167 226.654 C 307.075 226.574,304.210 228.383,300.800 230.675 M138.600 233.119 C 139.071 233.551,142.767 235.541,151.016 239.802 C 154.307 241.502,158.620 243.748,160.600 244.794 C 162.580 245.840,166.540 247.917,169.400 249.409 C 172.260 250.902,175.387 252.554,176.348 253.080 C 177.309 253.607,178.174 253.960,178.269 253.865 C 178.424 253.710,175.767 252.265,163.800 245.999 C 161.820 244.963,158.130 243.031,155.600 241.706 C 153.070 240.382,148.660 238.084,145.800 236.600 C 142.940 235.116,140.420 233.772,140.200 233.613 C 139.541 233.137,138.153 232.709,138.600 233.119 M64.400 236.367 C 65.363 237.152,66.000 237.408,66.000 237.010 C 66.000 236.906,65.415 236.535,64.700 236.186 L 63.400 235.552 64.400 236.367 M284.870 241.381 C 278.298 245.815,275.867 247.559,277.600 246.595 C 278.922 245.859,291.439 237.471,291.986 236.954 C 293.154 235.849,292.072 236.522,284.870 241.381 M66.400 237.352 C 66.400 237.653,69.295 239.238,69.489 239.044 C 69.593 238.941,68.940 238.480,68.039 238.020 C 67.137 237.560,66.400 237.260,66.400 237.352 M82.000 237.784 C 82.000 237.894,82.720 238.351,83.600 238.800 C 84.480 239.249,85.200 239.526,85.200 239.416 C 85.200 239.306,84.480 238.849,83.600 238.400 C 82.720 237.951,82.000 237.674,82.000 237.784 M70.766 239.889 C 72.041 240.827,78.000 244.100,78.000 243.862 C 78.000 243.648,75.659 242.268,72.200 240.444 C 70.880 239.748,70.235 239.498,70.766 239.889 M85.800 239.884 C 86.020 240.109,87.460 240.975,89.000 241.809 C 90.540 242.643,91.620 243.141,91.400 242.916 C 91.180 242.691,89.740 241.825,88.200 240.991 C 86.660 240.157,85.580 239.659,85.800 239.884 M80.200 245.122 C 80.656 245.601,85.547 248.400,85.927 248.400 C 86.322 248.400,84.813 247.432,82.200 246.009 C 80.880 245.291,79.980 244.891,80.200 245.122 M95.820 245.537 C 96.426 246.074,101.843 248.917,101.400 248.466 C 100.939 247.995,96.043 245.200,95.682 245.200 C 95.549 245.200,95.611 245.351,95.820 245.537 M273.821 248.836 C 271.037 250.828,270.076 251.620,271.200 250.994 C 273.513 249.708,277.535 246.671,276.724 246.823 C 276.656 246.836,275.349 247.742,273.821 248.836 M86.400 248.754 C 86.400 248.999,86.584 249.200,86.808 249.200 C 87.032 249.200,87.949 249.663,88.846 250.229 C 89.742 250.795,90.565 251.168,90.675 251.058 C 90.785 250.949,90.273 250.549,89.537 250.170 C 88.802 249.791,87.795 249.217,87.300 248.895 C 86.722 248.518,86.400 248.468,86.400 248.754 M102.611 249.334 C 103.045 249.628,109.250 253.115,116.400 257.083 C 123.550 261.052,130.300 264.798,131.400 265.408 C 132.500 266.019,135.740 267.821,138.600 269.414 C 141.460 271.007,144.700 272.804,145.800 273.407 C 146.900 274.011,148.925 275.127,150.300 275.887 C 151.675 276.647,152.800 277.179,152.800 277.069 C 152.800 276.887,151.733 276.267,145.906 273.064 C 144.864 272.491,142.614 271.233,140.906 270.269 C 139.198 269.305,136.810 267.971,135.600 267.304 C 134.390 266.636,127.820 262.984,121.000 259.188 C 114.180 255.392,107.430 251.656,106.000 250.887 C 104.570 250.119,103.229 249.334,103.020 249.145 C 102.811 248.955,102.456 248.800,102.231 248.800 C 102.006 248.800,102.177 249.040,102.611 249.334 M91.200 251.338 C 91.200 251.552,93.541 252.932,97.000 254.756 C 98.320 255.452,98.965 255.702,98.434 255.311 C 97.159 254.373,91.200 251.100,91.200 251.338 M265.093 254.664 C 262.284 256.564,260.051 258.185,260.131 258.265 C 260.298 258.431,270.400 251.660,270.400 251.382 C 270.400 251.076,270.351 251.106,265.093 254.664 M101.200 257.137 C 102.190 257.755,104.170 258.897,105.600 259.675 C 107.030 260.454,109.350 261.750,110.756 262.556 C 112.163 263.361,113.382 263.951,113.466 263.867 C 113.550 263.783,111.590 262.579,109.110 261.192 C 106.629 259.805,103.555 258.069,102.279 257.335 C 99.463 255.716,98.694 255.575,101.200 257.137 M255.505 261.084 C 253.362 262.546,251.680 263.813,251.766 263.899 C 251.933 264.067,259.600 258.851,259.600 258.569 C 259.600 258.292,259.550 258.322,255.505 261.084 M114.200 264.322 C 114.819 264.972,119.690 267.643,119.891 267.443 C 119.989 267.345,119.648 267.045,119.134 266.777 C 118.620 266.508,117.210 265.752,116.000 265.095 C 114.790 264.439,113.980 264.091,114.200 264.322 M249.800 265.030 L 248.600 266.055 249.900 265.341 C 250.615 264.949,251.200 264.486,251.200 264.314 C 251.200 263.859,251.123 263.899,249.800 265.030 M242.481 269.871 C 239.361 272.000,236.879 273.812,236.966 273.899 C 237.052 273.985,238.355 273.203,239.862 272.160 C 241.368 271.116,243.770 269.452,245.200 268.462 C 248.012 266.514,248.672 266.000,248.357 266.000 C 248.246 266.000,245.602 267.742,242.481 269.871 M120.400 267.758 C 120.400 267.996,124.341 270.403,124.706 270.387 C 124.868 270.380,124.640 270.096,124.200 269.756 C 123.225 269.002,120.400 267.516,120.400 267.758 M125.200 270.562 C 125.200 270.875,129.639 273.295,129.841 273.092 C 129.947 272.986,128.947 272.333,127.617 271.641 C 126.288 270.949,125.200 270.464,125.200 270.562 M131.000 273.806 C 131.895 274.541,135.227 276.303,134.600 275.710 C 134.380 275.502,133.300 274.841,132.200 274.241 C 131.100 273.641,130.560 273.445,131.000 273.806 M233.130 276.144 C 230.074 278.197,228.314 279.634,230.600 278.210 C 231.676 277.540,235.948 274.802,236.367 274.515 C 236.458 274.452,236.458 274.328,236.367 274.241 C 236.275 274.154,234.819 275.010,233.130 276.144 M135.200 276.171 C 135.200 276.324,136.103 276.863,140.800 279.512 C 141.570 279.947,143.350 280.959,144.756 281.761 C 146.163 282.564,147.384 283.150,147.470 283.063 C 147.610 282.923,143.521 280.501,138.400 277.689 C 137.410 277.146,136.429 276.543,136.220 276.351 C 135.824 275.985,135.200 275.875,135.200 276.171 M153.400 277.491 C 154.154 278.203,157.600 280.034,157.589 279.717 C 157.583 279.543,156.548 278.885,155.289 278.256 C 154.030 277.627,153.180 277.283,153.400 277.491 M222.200 283.452 C 216.142 287.564,213.383 289.587,215.200 288.587 C 216.372 287.941,228.210 279.895,228.786 279.352 C 229.958 278.247,228.874 278.922,222.200 283.452 M159.600 280.966 C 159.600 281.122,161.522 282.222,167.000 285.201 C 168.320 285.919,169.580 286.633,169.800 286.789 C 170.697 287.424,177.200 290.829,177.200 290.663 C 177.200 290.502,169.491 286.112,163.400 282.805 C 162.080 282.089,160.829 281.344,160.620 281.151 C 160.227 280.788,159.600 280.674,159.600 280.966 M148.000 283.352 C 148.000 283.653,150.895 285.238,151.089 285.044 C 151.193 284.941,150.540 284.480,149.639 284.020 C 148.737 283.560,148.000 283.260,148.000 283.352 M152.200 285.795 C 153.105 286.550,156.418 288.301,155.800 287.697 C 155.580 287.482,154.500 286.816,153.400 286.217 C 152.300 285.617,151.760 285.428,152.200 285.795 M156.600 288.296 C 157.154 288.846,162.400 291.715,162.400 291.469 C 162.400 291.359,161.185 290.578,159.700 289.734 C 156.661 288.008,155.998 287.700,156.600 288.296 M203.216 296.213 C 197.175 300.280,192.045 303.809,191.816 304.056 C 191.053 304.877,212.905 290.391,213.986 289.359 C 215.219 288.181,213.872 289.038,203.216 296.213 M177.600 290.984 C 177.600 291.094,178.320 291.551,179.200 292.000 C 180.080 292.449,180.800 292.726,180.800 292.616 C 180.800 292.506,180.080 292.049,179.200 291.600 C 178.320 291.151,177.600 290.874,177.600 290.984 M165.128 293.083 C 166.199 293.963,172.400 297.335,172.400 297.038 C 172.400 296.929,171.185 296.173,169.700 295.359 C 168.215 294.545,166.370 293.528,165.600 293.100 C 164.263 292.356,164.241 292.355,165.128 293.083 M174.411 298.254 C 174.424 298.638,181.248 302.485,181.489 302.244 C 181.573 302.160,180.417 301.411,178.921 300.580 C 177.424 299.748,175.795 298.807,175.300 298.488 C 174.805 298.169,174.405 298.064,174.411 298.254 M182.000 302.552 C 182.000 302.853,184.895 304.438,185.089 304.244 C 185.193 304.141,184.540 303.680,183.639 303.220 C 182.737 302.760,182.000 302.460,182.000 302.552 M186.400 305.167 C 187.689 306.218,189.264 306.218,190.456 305.168 L 191.400 304.336 190.411 304.968 C 189.167 305.763,188.298 305.765,186.680 304.976 L 185.400 304.352 186.400 305.167 " stroke="none" fill="#e3b198" fill-rule="evenodd"></path></g></svg>